<mxfile host="app.diagrams.net" modified="2022-07-30T12:20:54.198Z" agent="5.0 (Macintosh; Intel Mac OS X 10_15_7) AppleWebKit/537.36 (KHTML, like Gecko) Chrome/103.0.5060.134 Safari/537.36" etag="Uzco4EbrTr6AF0Q6gZF1" version="20.2.2" type="github">
  <diagram id="_dh9glDH5kx_qx3IPk2B" name="Page-1">
    <mxGraphModel dx="599" dy="769" grid="1" gridSize="10" guides="1" tooltips="1" connect="1" arrows="1" fold="1" page="1" pageScale="1" pageWidth="827" pageHeight="1169" math="0" shadow="0">
      <root>
        <mxCell id="0" />
        <mxCell id="1" parent="0" />
        <mxCell id="2vaMElDyrSs1qIXfbJuE-2" value="数字逻辑" style="rounded=0;whiteSpace=wrap;html=1;verticalAlign=top;" vertex="1" parent="1">
          <mxGeometry x="1081.5" y="1030" width="199" height="150" as="geometry" />
        </mxCell>
        <mxCell id="2vaMElDyrSs1qIXfbJuE-3" style="edgeStyle=orthogonalEdgeStyle;rounded=0;orthogonalLoop=1;jettySize=auto;html=1;exitX=0.5;exitY=0;exitDx=0;exitDy=0;entryX=0.5;entryY=1;entryDx=0;entryDy=0;" edge="1" parent="1" source="2vaMElDyrSs1qIXfbJuE-2" target="2vaMElDyrSs1qIXfbJuE-6">
          <mxGeometry relative="1" as="geometry">
            <mxPoint x="1181" y="960" as="targetPoint" />
          </mxGeometry>
        </mxCell>
        <mxCell id="2vaMElDyrSs1qIXfbJuE-26" value="" style="edgeStyle=orthogonalEdgeStyle;curved=1;rounded=0;orthogonalLoop=1;jettySize=auto;html=1;" edge="1" parent="1" source="2vaMElDyrSs1qIXfbJuE-6" target="2vaMElDyrSs1qIXfbJuE-24">
          <mxGeometry relative="1" as="geometry" />
        </mxCell>
        <mxCell id="2vaMElDyrSs1qIXfbJuE-6" value="计算机硬件" style="rounded=0;whiteSpace=wrap;html=1;verticalAlign=top;" vertex="1" parent="1">
          <mxGeometry x="1081.5" y="800" width="198.5" height="160" as="geometry" />
        </mxCell>
        <mxCell id="2vaMElDyrSs1qIXfbJuE-7" value="CPU" style="rounded=0;whiteSpace=wrap;html=1;fillColor=#FFFFFF;" vertex="1" parent="1">
          <mxGeometry x="1100" y="840" width="70" height="40" as="geometry" />
        </mxCell>
        <mxCell id="2vaMElDyrSs1qIXfbJuE-8" value="Memory" style="rounded=0;whiteSpace=wrap;html=1;fillColor=#FFFFFF;" vertex="1" parent="1">
          <mxGeometry x="1190" y="840" width="70" height="40" as="geometry" />
        </mxCell>
        <mxCell id="2vaMElDyrSs1qIXfbJuE-9" value="外设" style="rounded=0;whiteSpace=wrap;html=1;fillColor=#FFFFFF;" vertex="1" parent="1">
          <mxGeometry x="1100" y="900" width="70" height="40" as="geometry" />
        </mxCell>
        <mxCell id="2vaMElDyrSs1qIXfbJuE-10" value="Disk" style="rounded=0;whiteSpace=wrap;html=1;fillColor=#FFFFFF;" vertex="1" parent="1">
          <mxGeometry x="1190" y="900" width="70" height="40" as="geometry" />
        </mxCell>
        <mxCell id="2vaMElDyrSs1qIXfbJuE-13" value="" style="edgeStyle=orthogonalEdgeStyle;rounded=0;orthogonalLoop=1;jettySize=auto;html=1;" edge="1" parent="1" source="2vaMElDyrSs1qIXfbJuE-11" target="2vaMElDyrSs1qIXfbJuE-2">
          <mxGeometry relative="1" as="geometry" />
        </mxCell>
        <mxCell id="2vaMElDyrSs1qIXfbJuE-19" style="edgeStyle=orthogonalEdgeStyle;rounded=0;orthogonalLoop=1;jettySize=auto;html=1;exitX=1;exitY=0.5;exitDx=0;exitDy=0;entryX=0;entryY=0.5;entryDx=0;entryDy=0;curved=1;" edge="1" parent="1" source="2vaMElDyrSs1qIXfbJuE-11" target="2vaMElDyrSs1qIXfbJuE-15">
          <mxGeometry relative="1" as="geometry" />
        </mxCell>
        <mxCell id="2vaMElDyrSs1qIXfbJuE-21" style="edgeStyle=orthogonalEdgeStyle;curved=1;rounded=0;orthogonalLoop=1;jettySize=auto;html=1;exitX=1;exitY=0.5;exitDx=0;exitDy=0;entryX=0;entryY=0.5;entryDx=0;entryDy=0;" edge="1" parent="1" source="2vaMElDyrSs1qIXfbJuE-11" target="2vaMElDyrSs1qIXfbJuE-16">
          <mxGeometry relative="1" as="geometry" />
        </mxCell>
        <mxCell id="2vaMElDyrSs1qIXfbJuE-22" style="edgeStyle=orthogonalEdgeStyle;curved=1;rounded=0;orthogonalLoop=1;jettySize=auto;html=1;exitX=1;exitY=0.5;exitDx=0;exitDy=0;entryX=0;entryY=0.5;entryDx=0;entryDy=0;" edge="1" parent="1" source="2vaMElDyrSs1qIXfbJuE-11" target="2vaMElDyrSs1qIXfbJuE-18">
          <mxGeometry relative="1" as="geometry" />
        </mxCell>
        <mxCell id="2vaMElDyrSs1qIXfbJuE-23" style="edgeStyle=orthogonalEdgeStyle;curved=1;rounded=0;orthogonalLoop=1;jettySize=auto;html=1;exitX=1;exitY=0.5;exitDx=0;exitDy=0;entryX=0;entryY=0.5;entryDx=0;entryDy=0;" edge="1" parent="1" source="2vaMElDyrSs1qIXfbJuE-11" target="2vaMElDyrSs1qIXfbJuE-17">
          <mxGeometry relative="1" as="geometry" />
        </mxCell>
        <mxCell id="2vaMElDyrSs1qIXfbJuE-11" value="冯诺伊曼体系" style="rounded=0;whiteSpace=wrap;html=1;verticalAlign=middle;" vertex="1" parent="1">
          <mxGeometry x="1081.5" y="1250" width="199" height="50" as="geometry" />
        </mxCell>
        <mxCell id="2vaMElDyrSs1qIXfbJuE-14" value="" style="edgeStyle=orthogonalEdgeStyle;rounded=0;orthogonalLoop=1;jettySize=auto;html=1;" edge="1" parent="1" source="2vaMElDyrSs1qIXfbJuE-12" target="2vaMElDyrSs1qIXfbJuE-11">
          <mxGeometry relative="1" as="geometry" />
        </mxCell>
        <mxCell id="2vaMElDyrSs1qIXfbJuE-12" value="图灵机模型" style="rounded=0;whiteSpace=wrap;html=1;verticalAlign=middle;" vertex="1" parent="1">
          <mxGeometry x="1081" y="1390" width="199" height="50" as="geometry" />
        </mxCell>
        <mxCell id="2vaMElDyrSs1qIXfbJuE-15" value="控制器" style="rounded=0;whiteSpace=wrap;html=1;fillColor=#FFFFFF;" vertex="1" parent="1">
          <mxGeometry x="1380" y="1190" width="70" height="40" as="geometry" />
        </mxCell>
        <mxCell id="2vaMElDyrSs1qIXfbJuE-16" value="计算器" style="rounded=0;whiteSpace=wrap;html=1;fillColor=#FFFFFF;" vertex="1" parent="1">
          <mxGeometry x="1380" y="1240" width="70" height="40" as="geometry" />
        </mxCell>
        <mxCell id="2vaMElDyrSs1qIXfbJuE-17" value="输入/输出" style="rounded=0;whiteSpace=wrap;html=1;fillColor=#FFFFFF;" vertex="1" parent="1">
          <mxGeometry x="1380" y="1340" width="70" height="40" as="geometry" />
        </mxCell>
        <mxCell id="2vaMElDyrSs1qIXfbJuE-18" value="存储器" style="rounded=0;whiteSpace=wrap;html=1;fillColor=#FFFFFF;" vertex="1" parent="1">
          <mxGeometry x="1380" y="1290" width="70" height="40" as="geometry" />
        </mxCell>
        <mxCell id="2vaMElDyrSs1qIXfbJuE-30" style="edgeStyle=orthogonalEdgeStyle;curved=1;rounded=0;orthogonalLoop=1;jettySize=auto;html=1;exitX=1;exitY=0.5;exitDx=0;exitDy=0;entryX=0;entryY=0.5;entryDx=0;entryDy=0;" edge="1" parent="1" source="2vaMElDyrSs1qIXfbJuE-24" target="2vaMElDyrSs1qIXfbJuE-28">
          <mxGeometry relative="1" as="geometry" />
        </mxCell>
        <mxCell id="2vaMElDyrSs1qIXfbJuE-31" style="edgeStyle=orthogonalEdgeStyle;curved=1;rounded=0;orthogonalLoop=1;jettySize=auto;html=1;exitX=1;exitY=0.5;exitDx=0;exitDy=0;" edge="1" parent="1" source="2vaMElDyrSs1qIXfbJuE-24" target="2vaMElDyrSs1qIXfbJuE-29">
          <mxGeometry relative="1" as="geometry" />
        </mxCell>
        <mxCell id="2vaMElDyrSs1qIXfbJuE-33" style="edgeStyle=orthogonalEdgeStyle;curved=1;rounded=0;orthogonalLoop=1;jettySize=auto;html=1;exitX=0.5;exitY=0;exitDx=0;exitDy=0;entryX=0.5;entryY=1;entryDx=0;entryDy=0;" edge="1" parent="1" source="2vaMElDyrSs1qIXfbJuE-24" target="2vaMElDyrSs1qIXfbJuE-25">
          <mxGeometry relative="1" as="geometry">
            <mxPoint x="1180.5" y="560" as="targetPoint" />
          </mxGeometry>
        </mxCell>
        <mxCell id="2vaMElDyrSs1qIXfbJuE-24" value="ISA指令集" style="rounded=0;whiteSpace=wrap;html=1;verticalAlign=middle;" vertex="1" parent="1">
          <mxGeometry x="1081" y="690" width="199" height="50" as="geometry" />
        </mxCell>
        <mxCell id="2vaMElDyrSs1qIXfbJuE-38" value="" style="edgeStyle=orthogonalEdgeStyle;curved=1;rounded=0;orthogonalLoop=1;jettySize=auto;html=1;fontColor=#FF0000;" edge="1" parent="1" source="2vaMElDyrSs1qIXfbJuE-25" target="2vaMElDyrSs1qIXfbJuE-36">
          <mxGeometry relative="1" as="geometry" />
        </mxCell>
        <mxCell id="2vaMElDyrSs1qIXfbJuE-25" value="Assembly Language" style="rounded=0;whiteSpace=wrap;html=1;verticalAlign=middle;" vertex="1" parent="1">
          <mxGeometry x="1081.5" y="420" width="199" height="50" as="geometry" />
        </mxCell>
        <mxCell id="2vaMElDyrSs1qIXfbJuE-28" value="CISC&lt;br&gt;(Intel)" style="rounded=0;whiteSpace=wrap;html=1;fillColor=#FFFFFF;" vertex="1" parent="1">
          <mxGeometry x="1360" y="670" width="70" height="40" as="geometry" />
        </mxCell>
        <mxCell id="2vaMElDyrSs1qIXfbJuE-29" value="RISC&lt;br&gt;(ARM)" style="rounded=0;whiteSpace=wrap;html=1;fillColor=#FFFFFF;" vertex="1" parent="1">
          <mxGeometry x="1360" y="720" width="70" height="40" as="geometry" />
        </mxCell>
        <mxCell id="2vaMElDyrSs1qIXfbJuE-35" value="&lt;font color=&quot;#ff0000&quot;&gt;编译原理关注的问题是: 一个语言如何转换成另一个语言&lt;/font&gt;" style="text;html=1;strokeColor=none;fillColor=none;align=center;verticalAlign=middle;whiteSpace=wrap;rounded=0;" vertex="1" parent="1">
          <mxGeometry x="1980" y="720" width="309" height="40" as="geometry" />
        </mxCell>
        <mxCell id="2vaMElDyrSs1qIXfbJuE-39" value="" style="edgeStyle=orthogonalEdgeStyle;curved=1;rounded=0;orthogonalLoop=1;jettySize=auto;html=1;fontColor=#FF0000;" edge="1" parent="1" source="2vaMElDyrSs1qIXfbJuE-36" target="2vaMElDyrSs1qIXfbJuE-37">
          <mxGeometry relative="1" as="geometry" />
        </mxCell>
        <mxCell id="2vaMElDyrSs1qIXfbJuE-36" value="C" style="rounded=0;whiteSpace=wrap;html=1;verticalAlign=middle;" vertex="1" parent="1">
          <mxGeometry x="1081" y="210" width="199" height="50" as="geometry" />
        </mxCell>
        <mxCell id="2vaMElDyrSs1qIXfbJuE-37" value="OS" style="rounded=0;whiteSpace=wrap;html=1;verticalAlign=middle;" vertex="1" parent="1">
          <mxGeometry x="1081" y="50" width="199" height="50" as="geometry" />
        </mxCell>
        <mxCell id="2vaMElDyrSs1qIXfbJuE-40" value="&lt;div class=&quot;mind-clipboard&quot;&gt;C语言是面向编译器, 无法直接操作硬件; 只有汇编(机器语言)可以操作硬件;&lt;br&gt;所以操作系统是由C和汇编组合而成, 涉及到操作硬件的部分一定是由汇编实现的&lt;/div&gt;" style="text;html=1;strokeColor=none;fillColor=none;align=center;verticalAlign=middle;whiteSpace=wrap;rounded=0;fontColor=#9933FF;" vertex="1" parent="1">
          <mxGeometry x="1279.5" y="50" width="459.5" height="50" as="geometry" />
        </mxCell>
        <mxCell id="2vaMElDyrSs1qIXfbJuE-41" value="&lt;font color=&quot;#ff0000&quot;&gt;Compiler&lt;/font&gt;" style="text;html=1;strokeColor=none;fillColor=none;align=center;verticalAlign=middle;whiteSpace=wrap;rounded=0;" vertex="1" parent="1">
          <mxGeometry x="1190" y="270" width="80" height="30" as="geometry" />
        </mxCell>
        <mxCell id="2vaMElDyrSs1qIXfbJuE-42" value="&lt;font color=&quot;#ff0000&quot;&gt;Assembler&lt;/font&gt;" style="text;html=1;strokeColor=none;fillColor=none;align=center;verticalAlign=middle;whiteSpace=wrap;rounded=0;" vertex="1" parent="1">
          <mxGeometry x="1190" y="480" width="80" height="30" as="geometry" />
        </mxCell>
        <mxCell id="2vaMElDyrSs1qIXfbJuE-43" value="&lt;meta charset=&quot;utf-8&quot;&gt;&lt;span style=&quot;color: rgb(156, 39, 176); font-family: 微软雅黑; font-size: 15px; font-style: normal; font-variant-ligatures: normal; font-variant-caps: normal; font-weight: 700; letter-spacing: normal; orphans: 2; text-align: center; text-indent: 0px; text-transform: none; widows: 2; word-spacing: 0px; -webkit-text-stroke-width: 0px; background-color: rgba(255, 255, 255, 0.01); text-decoration-thickness: initial; text-decoration-style: initial; text-decoration-color: initial; float: none; display: inline !important;&quot;&gt;计算机编程语言的本质就是对下一层的抽象&lt;/span&gt;" style="text;html=1;strokeColor=none;fillColor=none;align=center;verticalAlign=middle;whiteSpace=wrap;rounded=0;fontColor=#9933FF;" vertex="1" parent="1">
          <mxGeometry x="1290" y="180" width="330" height="40" as="geometry" />
        </mxCell>
        <mxCell id="2vaMElDyrSs1qIXfbJuE-44" value="&lt;font face=&quot;微软雅黑&quot; style=&quot;font-size: 14px;&quot;&gt;&lt;span style=&quot;font-size: 14px; background-color: rgba(255, 255, 255, 0.01);&quot;&gt;&lt;b style=&quot;font-size: 14px;&quot;&gt;1.类型系统: 屏蔽对内存单元大小的访问&lt;br style=&quot;font-size: 14px;&quot;&gt;2.抽象对数据的操作: + - * / 等&lt;br style=&quot;font-size: 14px;&quot;&gt;e.g. int a = 1; a += 1; if while for 都是对下一层汇编的抽象&lt;br style=&quot;font-size: 14px;&quot;&gt;3.添加语言自身的特性&lt;br style=&quot;font-size: 14px;&quot;&gt;C: 最纯粹的汇编抽象, 自身没有扩展语言的特性&lt;br style=&quot;font-size: 14px;&quot;&gt;&lt;/b&gt;&lt;/span&gt;&lt;/font&gt;" style="text;html=1;strokeColor=none;fillColor=none;align=left;verticalAlign=middle;whiteSpace=wrap;rounded=0;fontColor=#000000;fontSize=14;" vertex="1" parent="1">
          <mxGeometry x="1310" y="220" width="360" height="120" as="geometry" />
        </mxCell>
        <mxCell id="2vaMElDyrSs1qIXfbJuE-45" value="编译原理" style="rounded=0;whiteSpace=wrap;html=1;verticalAlign=middle;" vertex="1" parent="1">
          <mxGeometry x="2040" y="770" width="199" height="50" as="geometry" />
        </mxCell>
        <mxCell id="2vaMElDyrSs1qIXfbJuE-50" style="edgeStyle=orthogonalEdgeStyle;curved=1;rounded=0;orthogonalLoop=1;jettySize=auto;html=1;entryX=0;entryY=0.5;entryDx=0;entryDy=0;fontSize=14;fontColor=#000000;" edge="1" parent="1" source="2vaMElDyrSs1qIXfbJuE-47" target="2vaMElDyrSs1qIXfbJuE-48">
          <mxGeometry relative="1" as="geometry" />
        </mxCell>
        <mxCell id="2vaMElDyrSs1qIXfbJuE-51" style="edgeStyle=orthogonalEdgeStyle;curved=1;rounded=0;orthogonalLoop=1;jettySize=auto;html=1;exitX=1;exitY=0.5;exitDx=0;exitDy=0;entryX=0;entryY=0.5;entryDx=0;entryDy=0;fontSize=14;fontColor=#000000;" edge="1" parent="1" source="2vaMElDyrSs1qIXfbJuE-47" target="2vaMElDyrSs1qIXfbJuE-49">
          <mxGeometry relative="1" as="geometry" />
        </mxCell>
        <mxCell id="2vaMElDyrSs1qIXfbJuE-47" value="&lt;meta charset=&quot;utf-8&quot; style=&quot;font-size: 14px;&quot;&gt;&lt;div class=&quot;mind-clipboard&quot; style=&quot;font-size: 14px;&quot;&gt;汇编语言抽象了ISA指令集的规则, 提供了人类可读的代码方式。&lt;br style=&quot;font-size: 14px;&quot;&gt;操作CPU的控制器, 控制存储单元和运算单元对缓存中的数据进行CRUD&lt;/div&gt;" style="text;html=1;strokeColor=none;fillColor=none;align=center;verticalAlign=middle;whiteSpace=wrap;rounded=0;fontColor=#000000;fontStyle=0;fontSize=14;" vertex="1" parent="1">
          <mxGeometry x="1290" y="410" width="470" height="80" as="geometry" />
        </mxCell>
        <mxCell id="2vaMElDyrSs1qIXfbJuE-56" style="edgeStyle=orthogonalEdgeStyle;curved=1;rounded=0;orthogonalLoop=1;jettySize=auto;html=1;exitX=1;exitY=0.5;exitDx=0;exitDy=0;entryX=0;entryY=0.5;entryDx=0;entryDy=0;fontSize=14;fontColor=#000000;" edge="1" parent="1" source="2vaMElDyrSs1qIXfbJuE-48" target="2vaMElDyrSs1qIXfbJuE-52">
          <mxGeometry relative="1" as="geometry" />
        </mxCell>
        <mxCell id="2vaMElDyrSs1qIXfbJuE-58" style="edgeStyle=orthogonalEdgeStyle;curved=1;rounded=0;orthogonalLoop=1;jettySize=auto;html=1;exitX=1;exitY=0.5;exitDx=0;exitDy=0;entryX=0;entryY=0.5;entryDx=0;entryDy=0;fontSize=14;fontColor=#000000;" edge="1" parent="1" source="2vaMElDyrSs1qIXfbJuE-48" target="2vaMElDyrSs1qIXfbJuE-53">
          <mxGeometry relative="1" as="geometry" />
        </mxCell>
        <mxCell id="2vaMElDyrSs1qIXfbJuE-48" value="编码规则" style="rounded=0;whiteSpace=wrap;html=1;fillColor=#FFFFFF;" vertex="1" parent="1">
          <mxGeometry x="1920" y="360" width="70" height="40" as="geometry" />
        </mxCell>
        <mxCell id="2vaMElDyrSs1qIXfbJuE-59" style="edgeStyle=orthogonalEdgeStyle;curved=1;rounded=0;orthogonalLoop=1;jettySize=auto;html=1;exitX=1;exitY=0.5;exitDx=0;exitDy=0;entryX=0;entryY=0.5;entryDx=0;entryDy=0;fontSize=14;fontColor=#000000;" edge="1" parent="1" source="2vaMElDyrSs1qIXfbJuE-49" target="2vaMElDyrSs1qIXfbJuE-54">
          <mxGeometry relative="1" as="geometry" />
        </mxCell>
        <mxCell id="2vaMElDyrSs1qIXfbJuE-60" style="edgeStyle=orthogonalEdgeStyle;curved=1;rounded=0;orthogonalLoop=1;jettySize=auto;html=1;exitX=1;exitY=0.5;exitDx=0;exitDy=0;entryX=0;entryY=0.5;entryDx=0;entryDy=0;fontSize=14;fontColor=#000000;" edge="1" parent="1" source="2vaMElDyrSs1qIXfbJuE-49" target="2vaMElDyrSs1qIXfbJuE-55">
          <mxGeometry relative="1" as="geometry" />
        </mxCell>
        <mxCell id="2vaMElDyrSs1qIXfbJuE-49" value="语言结构" style="rounded=0;whiteSpace=wrap;html=1;fillColor=#FFFFFF;" vertex="1" parent="1">
          <mxGeometry x="1920" y="500" width="70" height="40" as="geometry" />
        </mxCell>
        <mxCell id="2vaMElDyrSs1qIXfbJuE-52" value="AT&amp;amp;T" style="rounded=0;whiteSpace=wrap;html=1;fillColor=#FFFFFF;" vertex="1" parent="1">
          <mxGeometry x="2040" y="330" width="70" height="40" as="geometry" />
        </mxCell>
        <mxCell id="2vaMElDyrSs1qIXfbJuE-53" value="Intel" style="rounded=0;whiteSpace=wrap;html=1;fillColor=#FFFFFF;" vertex="1" parent="1">
          <mxGeometry x="2040" y="385" width="70" height="40" as="geometry" />
        </mxCell>
        <mxCell id="2vaMElDyrSs1qIXfbJuE-54" value="operator" style="rounded=0;whiteSpace=wrap;html=1;fillColor=#FFFFFF;" vertex="1" parent="1">
          <mxGeometry x="2040" y="472.5" width="70" height="40" as="geometry" />
        </mxCell>
        <mxCell id="2vaMElDyrSs1qIXfbJuE-55" value="operand" style="rounded=0;whiteSpace=wrap;html=1;fillColor=#FFFFFF;" vertex="1" parent="1">
          <mxGeometry x="2040" y="527.5" width="70" height="40" as="geometry" />
        </mxCell>
        <mxCell id="2vaMElDyrSs1qIXfbJuE-61" value="&lt;meta charset=&quot;utf-8&quot;&gt;&lt;span style=&quot;color: rgb(244, 67, 54); font-family: 微软雅黑; font-size: 13px; font-style: normal; font-variant-ligatures: normal; font-variant-caps: normal; font-weight: 700; letter-spacing: normal; orphans: 2; text-align: center; text-indent: 0px; text-transform: none; widows: 2; word-spacing: 0px; -webkit-text-stroke-width: 0px; background-color: rgba(255, 255, 255, 0.01); text-decoration-thickness: initial; text-decoration-style: initial; text-decoration-color: initial; float: none; display: inline !important;&quot;&gt;寄存器中的值 or 内存中的值&lt;/span&gt;" style="text;html=1;strokeColor=none;fillColor=none;align=center;verticalAlign=middle;whiteSpace=wrap;rounded=0;fontSize=14;fontColor=#000000;" vertex="1" parent="1">
          <mxGeometry x="2000" y="570" width="165" height="30" as="geometry" />
        </mxCell>
      </root>
    </mxGraphModel>
  </diagram>
</mxfile>
